<svg xmlns="http://www.w3.org/2000/svg" width="5000" height="600"><rect width="5000" height="600" x="0" y="0" fill="#FFFFFF" id="backgorund"/><g id="viz"><g transform="translate(0,0)"><g transform="translate(40,20)"><g class="bars"><rect id="undefined - Score" x="3974.7990443587405" y="560" height="0" width="59.114434921046175" fill="#1f77b4"/><rect id="undefined - Score" x="4039.8780342233904" y="560" height="0" width="59.114434921046175" fill="#1f77b4"/><rect id="undefined - Score" x="2803.3772267950494" y="472.25825438909067" height="87.74174561090933" width="59.114434921046175" fill="#1f77b4"/><rect id="undefined - Score" x="4.980662615120142" y="30.04621271419289" height="529.9537872858072" width="59.114434921046175" fill="#1f77b4"/><rect id="undefined - Score" x="70.05965247976965" y="49.60645189925778" height="510.39354810074224" width="59.114434921046175" fill="#1f77b4"/><rect id="undefined - Score" x="135.13864234441917" y="139.0173980543578" height="420.98260194564216" width="59.114434921046175" fill="#1f77b4"/><rect id="undefined - Score" x="3519.246115306194" y="530.4501837250418" height="29.549816274958175" width="59.114434921046175" fill="#1f77b4"/><rect id="undefined - Score" x="590.6915713969659" y="289.627903762923" height="270.372096237077" width="59.114434921046175" fill="#1f77b4"/><rect id="undefined - Score" x="981.1655105848629" y="327.7212337382766" height="232.27876626172338" width="59.114434921046175" fill="#1f77b4"/><rect id="undefined - Score" x="1566.8764193667084" y="378.35589252547084" height="181.64410747452916" width="59.114434921046175" fill="#1f77b4"/><rect id="undefined - Score" x="1827.1923788253064" y="413.450300571243" height="146.54969942875698" width="59.114434921046175" fill="#1f77b4"/><rect id="undefined - Score" x="265.2966220737182" y="213.8313759661616" height="346.1686240338384" width="59.114434921046175" fill="#1f77b4"/><rect id="undefined - Score" x="3324.0091457122458" y="519.7748018442971" height="40.225198155702856" width="59.114434921046175" fill="#1f77b4"/><rect id="undefined - Score" x="2543.0612673364512" y="456.1886796791898" height="103.81132032081018" width="59.114434921046175" fill="#1f77b4"/><rect id="undefined - Score" x="1111.3234903141617" y="329.55816810658285" height="230.44183189341715" width="59.114434921046175" fill="#1f77b4"/><rect id="undefined - Score" x="330.37561193836774" y="230.08006051380954" height="329.91993948619046" width="59.114434921046175" fill="#1f77b4"/><rect id="undefined - Score" x="1892.271368689956" y="416.15749978729025" height="143.84250021270975" width="59.114434921046175" fill="#1f77b4"/><rect id="undefined - Score" x="1631.9554092313579" y="378.88249724066145" height="181.11750275933855" width="59.114434921046175" fill="#1f77b4"/><rect id="undefined - Score" x="395.4546018030172" y="258.65348983130104" height="301.34651016869896" width="59.114434921046175" fill="#1f77b4"/><rect id="undefined - Score" x="1501.797429502059" y="377.54386923125287" height="182.45613076874713" width="59.114434921046175" fill="#1f77b4"/><rect id="undefined - Score" x="2477.982277471802" y="453.4216495809686" height="106.57835041903138" width="59.114434921046175" fill="#1f77b4"/><rect id="undefined - Score" x="2217.6663180132036" y="435.98940878736363" height="124.01059121263637" width="59.114434921046175" fill="#1f77b4"/><rect id="undefined - Score" x="3258.930155847596" y="512.3868360297065" height="47.6131639702935" width="59.114434921046175" fill="#1f77b4"/><rect id="undefined - Score" x="785.9285409909144" y="299.67057470236773" height="260.32942529763227" width="59.114434921046175" fill="#1f77b4"/><rect id="undefined - Score" x="1371.63944977276" y="362.5079986137946" height="197.4920013862054" width="59.114434921046175" fill="#1f77b4"/><rect id="undefined - Score" x="720.8495511262648" y="294.95615166853054" height="265.04384833146946" width="59.114434921046175" fill="#1f77b4"/><rect id="undefined - Score" x="2022.4293484192551" y="419.76792931821143" height="140.23207068178857" width="59.114434921046175" fill="#1f77b4"/><rect id="undefined - Score" x="1241.4814700434608" y="342.19306256392684" height="217.80693743607316" width="59.114434921046175" fill="#1f77b4"/><rect id="undefined - Score" x="2152.587328148554" y="433.43545949061865" height="126.56454050938135" width="59.114434921046175" fill="#1f77b4"/><rect id="undefined - Score" x="1697.0343990960075" y="383.37229544157077" height="176.62770455842923" width="59.114434921046175" fill="#1f77b4"/><rect id="undefined - Score" x="2738.2982369304" y="471.5230312628348" height="88.47696873716518" width="59.114434921046175" fill="#1f77b4"/><rect id="undefined - Score" x="525.6125815323163" y="283.01949093818683" height="276.98050906181317" width="59.114434921046175" fill="#1f77b4"/><rect id="undefined - Score" x="460.5335916676667" y="276.58920345996256" height="283.41079654003744" width="59.114434921046175" fill="#1f77b4"/><rect id="undefined - Score" x="2868.456216659699" y="473.74164060452756" height="86.25835939547244" width="59.114434921046175" fill="#1f77b4"/><rect id="undefined - Score" x="2933.5352065243483" y="500.71146838228793" height="59.28853161771207" width="59.114434921046175" fill="#1f77b4"/><rect id="undefined - Score" x="2412.9032876071524" y="448.7595709998113" height="111.24042900018873" width="59.114434921046175" fill="#1f77b4"/><rect id="undefined - Score" x="1306.5604599081105" y="353.36965518473335" height="206.63034481526665" width="59.114434921046175" fill="#1f77b4"/><rect id="undefined - Score" x="1762.113388960657" y="411.69098935291566" height="148.30901064708434" width="59.114434921046175" fill="#1f77b4"/><rect id="undefined - Score" x="3714.483084900143" y="546.9895462130405" height="13.010453786959488" width="59.114434921046175" fill="#1f77b4"/><rect id="undefined - Score" x="1436.7184396374093" y="363.09798636756466" height="196.90201363243534" width="59.114434921046175" fill="#1f77b4"/><rect id="undefined - Score" x="3454.1671254415446" y="525.8995231682414" height="34.100476831758556" width="59.114434921046175" fill="#1f77b4"/><rect id="undefined - Score" x="4104.957024088039" y="560" height="0" width="59.114434921046175" fill="#1f77b4"/><rect id="undefined - Score" x="3649.404095035493" y="536.6847928243365" height="23.315207175663545" width="59.114434921046175" fill="#1f77b4"/><rect id="undefined - Score" x="4170.036013952689" y="560" height="0" width="59.114434921046175" fill="#1f77b4"/><rect id="undefined - Score" x="4235.115003817339" y="560" height="0" width="59.114434921046175" fill="#1f77b4"/><rect id="undefined - Score" x="4300.193993681988" y="560" height="0" width="59.114434921046175" fill="#1f77b4"/><rect id="undefined - Score" x="4365.272983546638" y="560" height="0" width="59.114434921046175" fill="#1f77b4"/><rect id="undefined - Score" x="3128.772176118297" y="509.3803322096603" height="50.61966779033969" width="59.114434921046175" fill="#1f77b4"/><rect id="undefined - Score" x="2282.7453078778535" y="437.75281025674803" height="122.24718974325197" width="59.114434921046175" fill="#1f77b4"/><rect id="undefined - Score" x="3193.8511659829464" y="511.6180740687013" height="48.381925931298724" width="59.114434921046175" fill="#1f77b4"/><rect id="undefined - Score" x="3389.088135576895" y="521.2720912199659" height="38.72790878003411" width="59.114434921046175" fill="#1f77b4"/><rect id="undefined - Score" x="4430.351973411287" y="560" height="0" width="59.114434921046175" fill="#1f77b4"/><rect id="undefined - Score" x="2087.508338283905" y="429.1568412686514" height="130.84315873134858" width="59.114434921046175" fill="#1f77b4"/><rect id="undefined - Score" x="4495.430963275937" y="560" height="0" width="59.114434921046175" fill="#1f77b4"/><rect id="undefined - Score" x="4560.509953140587" y="560" height="0" width="59.114434921046175" fill="#1f77b4"/><rect id="undefined - Score" x="4625.588943005236" y="560" height="0" width="59.114434921046175" fill="#1f77b4"/><rect id="undefined - Score" x="1046.2445004495123" y="329.4613884622239" height="230.5386115377761" width="59.114434921046175" fill="#1f77b4"/><rect id="undefined - Score" x="2608.140257201101" y="459.2919060289868" height="100.70809397101323" width="59.114434921046175" fill="#1f77b4"/><rect id="undefined - Score" x="4690.667932869886" y="560" height="0" width="59.114434921046175" fill="#1f77b4"/><rect id="undefined - Score" x="3584.3251051708435" y="536.4054860699484" height="23.594513930051562" width="59.114434921046175" fill="#1f77b4"/><rect id="undefined - Score" x="655.7705612616154" y="289.71502093451693" height="270.28497906548307" width="59.114434921046175" fill="#1f77b4"/><rect id="undefined - Score" x="4755.746922734535" y="560" height="0" width="59.114434921046175" fill="#1f77b4"/><rect id="undefined - Score" x="916.0865207202133" y="319.88833250907993" height="240.11166749092007" width="59.114434921046175" fill="#1f77b4"/><rect id="undefined - Score" x="200.21763220906868" y="205.69406201321124" height="354.30593798678876" width="59.114434921046175" fill="#1f77b4"/><rect id="undefined - Score" x="2998.614196388998" y="501.52342069357786" height="58.47657930642214" width="59.114434921046175" fill="#1f77b4"/><rect id="undefined - Score" x="3844.6410646294416" y="549.6858305300959" height="10.314169469904073" width="59.114434921046175" fill="#1f77b4"/><rect id="undefined - Score" x="3779.562074764792" y="548.2988184987909" height="11.701181501209135" width="59.114434921046175" fill="#1f77b4"/><rect id="undefined - Score" x="2673.2192470657506" y="462.7156092370081" height="97.2843907629919" width="59.114434921046175" fill="#1f77b4"/><rect id="undefined - Score" x="851.0075308555639" y="319.4005101648005" height="240.5994898351995" width="59.114434921046175" fill="#1f77b4"/><rect id="undefined - Score" x="4820.825912599184" y="560" height="0" width="59.114434921046175" fill="#1f77b4"/><rect id="undefined - Score" x="3909.720054494091" y="554.9380182362422" height="5.061981763757785" width="59.114434921046175" fill="#1f77b4"/><rect id="undefined - Score" x="1957.3503585546055" y="416.58643559360394" height="143.41356440639606" width="59.114434921046175" fill="#1f77b4"/><rect id="undefined - Score" x="2347.824297742503" y="446.3758120350162" height="113.62418796498378" width="59.114434921046175" fill="#1f77b4"/><rect id="undefined - Score" x="3063.6931862536476" y="502.1451374775138" height="57.8548625224862" width="59.114434921046175" fill="#1f77b4"/><rect id="undefined - Score" x="1176.4024801788114" y="340.3079643335842" height="219.6920356664158" width="59.114434921046175" fill="#1f77b4"/><rect id="undefined - Score" x="4885.904902463834" y="560" height="0" width="59.114434921046175" fill="#1f77b4"/></g><g id="xAxis" transform="translate(0,560)" fill="none" font-size="10" font-family="sans-serif" text-anchor="middle"><path class="domain" stroke="currentColor" d="M0.5,0.5H4950.5"/><g class="tick" opacity="1" transform="translate(34.53788007564323,0)"><line stroke="currentColor" y2="6"/><text fill="currentColor" y="9" dy="0.71em">weight_16</text></g><g class="tick" opacity="1" transform="translate(99.61686994029274,0)"><line stroke="currentColor" y2="6"/><text fill="currentColor" y="9" dy="0.71em">height_16</text></g><g class="tick" opacity="1" transform="translate(164.69585980494224,0)"><line stroke="currentColor" y2="6"/><text fill="currentColor" y="9" dy="0.71em">iq</text></g><g class="tick" opacity="1" transform="translate(229.7748496695918,0)"><line stroke="currentColor" y2="6"/><text fill="currentColor" y="9" dy="0.71em">phone_14_week</text></g><g class="tick" opacity="1" transform="translate(294.8538395342413,0)"><line stroke="currentColor" y2="6"/><text fill="currentColor" y="9" dy="0.71em">comp_wend</text></g><g class="tick" opacity="1" transform="translate(359.9328293988908,0)"><line stroke="currentColor" y2="6"/><text fill="currentColor" y="9" dy="0.71em">alon_wend</text></g><g class="tick" opacity="1" transform="translate(425.0118192635403,0)"><line stroke="currentColor" y2="6"/><text fill="currentColor" y="9" dy="0.71em">tv_wend</text></g><g class="tick" opacity="1" transform="translate(490.0908091281898,0)"><line stroke="currentColor" y2="6"/><text fill="currentColor" y="9" dy="0.71em">tv_week</text></g><g class="tick" opacity="1" transform="translate(555.1697989928393,0)"><line stroke="currentColor" y2="6"/><text fill="currentColor" y="9" dy="0.71em">play_week</text></g><g class="tick" opacity="1" transform="translate(620.2487888574889,0)"><line stroke="currentColor" y2="6"/><text fill="currentColor" y="9" dy="0.71em">comp_int_bed_16</text></g><g class="tick" opacity="1" transform="translate(685.3277787221384,0)"><line stroke="currentColor" y2="6"/><text fill="currentColor" y="9" dy="0.71em">exercise</text></g><g class="tick" opacity="1" transform="translate(750.4067685867878,0)"><line stroke="currentColor" y2="6"/><text fill="currentColor" y="9" dy="0.71em">comp_week</text></g><g class="tick" opacity="1" transform="translate(815.4857584514374,0)"><line stroke="currentColor" y2="6"/><text fill="currentColor" y="9" dy="0.71em">text_week</text></g><g class="tick" opacity="1" transform="translate(880.5647483160869,0)"><line stroke="currentColor" y2="6"/><text fill="currentColor" y="9" dy="0.71em">tv_bed_16</text></g><g class="tick" opacity="1" transform="translate(945.6437381807364,0)"><line stroke="currentColor" y2="6"/><text fill="currentColor" y="9" dy="0.71em">phone_14_wend</text></g><g class="tick" opacity="1" transform="translate(1010.7227280453859,0)"><line stroke="currentColor" y2="6"/><text fill="currentColor" y="9" dy="0.71em">talk_phon_wend</text></g><g class="tick" opacity="1" transform="translate(1075.8017179100354,0)"><line stroke="currentColor" y2="6"/><text fill="currentColor" y="9" dy="0.71em">anx_band_15</text></g><g class="tick" opacity="1" transform="translate(1140.8807077746849,0)"><line stroke="currentColor" y2="6"/><text fill="currentColor" y="9" dy="0.71em">work_wend</text></g><g class="tick" opacity="1" transform="translate(1205.9596976393345,0)"><line stroke="currentColor" y2="6"/><text fill="currentColor" y="9" dy="0.71em">sex</text></g><g class="tick" opacity="1" transform="translate(1271.038687503984,0)"><line stroke="currentColor" y2="6"/><text fill="currentColor" y="9" dy="0.71em">read_week</text></g><g class="tick" opacity="1" transform="translate(1336.1176773686336,0)"><line stroke="currentColor" y2="6"/><text fill="currentColor" y="9" dy="0.71em">pat_pres_10</text></g><g class="tick" opacity="1" transform="translate(1401.196667233283,0)"><line stroke="currentColor" y2="6"/><text fill="currentColor" y="9" dy="0.71em">talk_mob_week</text></g><g class="tick" opacity="1" transform="translate(1466.2756570979325,0)"><line stroke="currentColor" y2="6"/><text fill="currentColor" y="9" dy="0.71em">num_home</text></g><g class="tick" opacity="1" transform="translate(1531.3546469625821,0)"><line stroke="currentColor" y2="6"/><text fill="currentColor" y="9" dy="0.71em">out_win_wend</text></g><g class="tick" opacity="1" transform="translate(1596.4336368272316,0)"><line stroke="currentColor" y2="6"/><text fill="currentColor" y="9" dy="0.71em">text_wend</text></g><g class="tick" opacity="1" transform="translate(1661.512626691881,0)"><line stroke="currentColor" y2="6"/><text fill="currentColor" y="9" dy="0.71em">play_wend</text></g><g class="tick" opacity="1" transform="translate(1726.5916165565307,0)"><line stroke="currentColor" y2="6"/><text fill="currentColor" y="9" dy="0.71em">alon_week</text></g><g class="tick" opacity="1" transform="translate(1791.67060642118,0)"><line stroke="currentColor" y2="6"/><text fill="currentColor" y="9" dy="0.71em">pat_pres_8</text></g><g class="tick" opacity="1" transform="translate(1856.7495962858295,0)"><line stroke="currentColor" y2="6"/><text fill="currentColor" y="9" dy="0.71em">talk_mob_wend</text></g><g class="tick" opacity="1" transform="translate(1921.8285861504792,0)"><line stroke="currentColor" y2="6"/><text fill="currentColor" y="9" dy="0.71em">draw_wend</text></g><g class="tick" opacity="1" transform="translate(1986.9075760151286,0)"><line stroke="currentColor" y2="6"/><text fill="currentColor" y="9" dy="0.71em">fam_tv_eve</text></g><g class="tick" opacity="1" transform="translate(2051.9865658797785,0)"><line stroke="currentColor" y2="6"/><text fill="currentColor" y="9" dy="0.71em">musi_week</text></g><g class="tick" opacity="1" transform="translate(2117.065555744428,0)"><line stroke="currentColor" y2="6"/><text fill="currentColor" y="9" dy="0.71em">dep_band_15</text></g><g class="tick" opacity="1" transform="translate(2182.1445456090773,0)"><line stroke="currentColor" y2="6"/><text fill="currentColor" y="9" dy="0.71em">work_week</text></g><g class="tick" opacity="1" transform="translate(2247.2235354737268,0)"><line stroke="currentColor" y2="6"/><text fill="currentColor" y="9" dy="0.71em">tran_wend</text></g><g class="tick" opacity="1" transform="translate(2312.3025253383767,0)"><line stroke="currentColor" y2="6"/><text fill="currentColor" y="9" dy="0.71em">mat_ses</text></g><g class="tick" opacity="1" transform="translate(2377.381515203026,0)"><line stroke="currentColor" y2="6"/><text fill="currentColor" y="9" dy="0.71em">fam_tv_aft</text></g><g class="tick" opacity="1" transform="translate(2442.4605050676755,0)"><line stroke="currentColor" y2="6"/><text fill="currentColor" y="9" dy="0.71em">tran_week</text></g><g class="tick" opacity="1" transform="translate(2507.539494932325,0)"><line stroke="currentColor" y2="6"/><text fill="currentColor" y="9" dy="0.71em">out_sum_wend</text></g><g class="tick" opacity="1" transform="translate(2572.6184847969744,0)"><line stroke="currentColor" y2="6"/><text fill="currentColor" y="9" dy="0.71em">read_wend</text></g><g class="tick" opacity="1" transform="translate(2637.6974746616243,0)"><line stroke="currentColor" y2="6"/><text fill="currentColor" y="9" dy="0.71em">anx_band_13</text></g><g class="tick" opacity="1" transform="translate(2702.7764645262737,0)"><line stroke="currentColor" y2="6"/><text fill="currentColor" y="9" dy="0.71em">comp_house</text></g><g class="tick" opacity="1" transform="translate(2767.855454390923,0)"><line stroke="currentColor" y2="6"/><text fill="currentColor" y="9" dy="0.71em">draw_week</text></g><g class="tick" opacity="1" transform="translate(2832.9344442555725,0)"><line stroke="currentColor" y2="6"/><text fill="currentColor" y="9" dy="0.71em">mat_age</text></g><g class="tick" opacity="1" transform="translate(2898.013434120222,0)"><line stroke="currentColor" y2="6"/><text fill="currentColor" y="9" dy="0.71em">out_win_week</text></g><g class="tick" opacity="1" transform="translate(2963.0924239848714,0)"><line stroke="currentColor" y2="6"/><text fill="currentColor" y="9" dy="0.71em">out_sum_week</text></g><g class="tick" opacity="1" transform="translate(3028.1714138495213,0)"><line stroke="currentColor" y2="6"/><text fill="currentColor" y="9" dy="0.71em">musi_13</text></g><g class="tick" opacity="1" transform="translate(3093.2504037141707,0)"><line stroke="currentColor" y2="6"/><text fill="currentColor" y="9" dy="0.71em">fam_tv_mor</text></g><g class="tick" opacity="1" transform="translate(3158.32939357882,0)"><line stroke="currentColor" y2="6"/><text fill="currentColor" y="9" dy="0.71em">pat_ses</text></g><g class="tick" opacity="1" transform="translate(3223.4083834434696,0)"><line stroke="currentColor" y2="6"/><text fill="currentColor" y="9" dy="0.71em">pat_edu</text></g><g class="tick" opacity="1" transform="translate(3288.487373308119,0)"><line stroke="currentColor" y2="6"/><text fill="currentColor" y="9" dy="0.71em">talk_phon_week</text></g><g class="tick" opacity="1" transform="translate(3353.566363172769,0)"><line stroke="currentColor" y2="6"/><text fill="currentColor" y="9" dy="0.71em">musi_wend</text></g><g class="tick" opacity="1" transform="translate(3418.6453530374183,0)"><line stroke="currentColor" y2="6"/><text fill="currentColor" y="9" dy="0.71em">mat_edu</text></g><g class="tick" opacity="1" transform="translate(3483.7243429020677,0)"><line stroke="currentColor" y2="6"/><text fill="currentColor" y="9" dy="0.71em">mat_anx_1</text></g><g class="tick" opacity="1" transform="translate(3548.803332766717,0)"><line stroke="currentColor" y2="6"/><text fill="currentColor" y="9" dy="0.71em">comp_noint_bed_16</text></g><g class="tick" opacity="1" transform="translate(3613.8823226313666,0)"><line stroke="currentColor" y2="6"/><text fill="currentColor" y="9" dy="0.71em">anx_band_07</text></g><g class="tick" opacity="1" transform="translate(3678.961312496016,0)"><line stroke="currentColor" y2="6"/><text fill="currentColor" y="9" dy="0.71em">mat_anx_8m</text></g><g class="tick" opacity="1" transform="translate(3744.040302360666,0)"><line stroke="currentColor" y2="6"/><text fill="currentColor" y="9" dy="0.71em">pat_pres</text></g><g class="tick" opacity="1" transform="translate(3809.1192922253153,0)"><line stroke="currentColor" y2="6"/><text fill="currentColor" y="9" dy="0.71em">own_mob</text></g><g class="tick" opacity="1" transform="translate(3874.198282089965,0)"><line stroke="currentColor" y2="6"/><text fill="currentColor" y="9" dy="0.71em">tv_bed_9</text></g><g class="tick" opacity="1" transform="translate(3939.277271954614,0)"><line stroke="currentColor" y2="6"/><text fill="currentColor" y="9" dy="0.71em">comp_games</text></g><g class="tick" opacity="1" transform="translate(4004.3562618192636,0)"><line stroke="currentColor" y2="6"/><text fill="currentColor" y="9" dy="0.71em">comp_bed_9</text></g><g class="tick" opacity="1" transform="translate(4069.4352516839135,0)"><line stroke="currentColor" y2="6"/><text fill="currentColor" y="9" dy="0.71em">mat_dep</text></g><g class="tick" opacity="1" transform="translate(4134.5142415485625,0)"><line stroke="currentColor" y2="6"/><text fill="currentColor" y="9" dy="0.71em">mat_anx_18m</text></g><g class="tick" opacity="1" transform="translate(4199.593231413212,0)"><line stroke="currentColor" y2="6"/><text fill="currentColor" y="9" dy="0.71em">agg_score</text></g><g class="tick" opacity="1" transform="translate(4264.672221277862,0)"><line stroke="currentColor" y2="6"/><text fill="currentColor" y="9" dy="0.71em">emot_cruel</text></g><g class="tick" opacity="1" transform="translate(4329.751211142511,0)"><line stroke="currentColor" y2="6"/><text fill="currentColor" y="9" dy="0.71em">phys_cruel</text></g><g class="tick" opacity="1" transform="translate(4394.830201007161,0)"><line stroke="currentColor" y2="6"/><text fill="currentColor" y="9" dy="0.71em">mat_anx_0m</text></g><g class="tick" opacity="1" transform="translate(4459.90919087181,0)"><line stroke="currentColor" y2="6"/><text fill="currentColor" y="9" dy="0.71em">parity</text></g><g class="tick" opacity="1" transform="translate(4524.98818073646,0)"><line stroke="currentColor" y2="6"/><text fill="currentColor" y="9" dy="0.71em">dep_band_13</text></g><g class="tick" opacity="1" transform="translate(4590.06717060111,0)"><line stroke="currentColor" y2="6"/><text fill="currentColor" y="9" dy="0.71em">dep_band_10</text></g><g class="tick" opacity="1" transform="translate(4655.146160465759,0)"><line stroke="currentColor" y2="6"/><text fill="currentColor" y="9" dy="0.71em">dep_band_07</text></g><g class="tick" opacity="1" transform="translate(4720.225150330409,0)"><line stroke="currentColor" y2="6"/><text fill="currentColor" y="9" dy="0.71em">anx_band_10</text></g><g class="tick" opacity="1" transform="translate(4785.304140195058,0)"><line stroke="currentColor" y2="6"/><text fill="currentColor" y="9" dy="0.71em">child_bull</text></g><g class="tick" opacity="1" transform="translate(4850.383130059708,0)"><line stroke="currentColor" y2="6"/><text fill="currentColor" y="9" dy="0.71em">creat_14</text></g><g class="tick" opacity="1" transform="translate(4915.4621199243575,0)"><line stroke="currentColor" y2="6"/><text fill="currentColor" y="9" dy="0.71em">birth_order</text></g></g><g id="yAxis" fill="none" font-size="10" font-family="sans-serif" text-anchor="end"><path class="domain" stroke="currentColor" d="M0.5,560.5V0.5"/><g class="tick" opacity="1" transform="translate(0,560.5)"><line stroke="currentColor" x2="-6"/><text fill="currentColor" x="-9" dy="0.32em">0.000</text></g><g class="tick" opacity="1" transform="translate(0,504.5)"><line stroke="currentColor" x2="-6"/><text fill="currentColor" x="-9" dy="0.32em">0.001</text></g><g class="tick" opacity="1" transform="translate(0,448.5)"><line stroke="currentColor" x2="-6"/><text fill="currentColor" x="-9" dy="0.32em">0.002</text></g><g class="tick" opacity="1" transform="translate(0,392.5)"><line stroke="currentColor" x2="-6"/><text fill="currentColor" x="-9" dy="0.32em">0.003</text></g><g class="tick" opacity="1" transform="translate(0,336.5)"><line stroke="currentColor" x2="-6"/><text fill="currentColor" x="-9" dy="0.32em">0.004</text></g><g class="tick" opacity="1" transform="translate(0,280.5)"><line stroke="currentColor" x2="-6"/><text fill="currentColor" x="-9" dy="0.32em">0.005</text></g><g class="tick" opacity="1" transform="translate(0,224.5)"><line stroke="currentColor" x2="-6"/><text fill="currentColor" x="-9" dy="0.32em">0.006</text></g><g class="tick" opacity="1" transform="translate(0,168.50000000000003)"><line stroke="currentColor" x2="-6"/><text fill="currentColor" x="-9" dy="0.32em">0.007</text></g><g class="tick" opacity="1" transform="translate(0,112.49999999999997)"><line stroke="currentColor" x2="-6"/><text fill="currentColor" x="-9" dy="0.32em">0.008</text></g><g class="tick" opacity="1" transform="translate(0,56.50000000000005)"><line stroke="currentColor" x2="-6"/><text fill="currentColor" x="-9" dy="0.32em">0.009</text></g><g class="tick" opacity="1" transform="translate(0,0.5)"><line stroke="currentColor" x2="-6"/><text fill="currentColor" x="-9" dy="0.32em">0.010</text></g></g><text y="556" x="4950" text-anchor="end" style="font-family: Arial, sans-serif; font-size: 12px; fill: rgb(123, 123, 123); font-weight: bold;">Sets</text><text y="0" x="4" dominant-baseline="hanging" text-anchor="start" style="font-family: Arial, sans-serif; font-size: 12px; fill: rgb(123, 123, 123); font-weight: bold;">Value</text></g><text x="4" y="4" style="font-family: Arial, sans-serif; font-size: 12px; fill: black; font-weight: bold; dominant-baseline: hanging;"/></g><g id="grid"><rect x="0" y="0" width="5000" height="600" fill="none" stroke="#ccc"/></g></g></svg>